<svg id="Capa_1" enable-background="new 0 0 512 512" height="512" viewBox="0 0 512 512" width="512" xmlns="http://www.w3.org/2000/svg"><g><g><path d="m209.625 260.333h92.749v144.667h-92.749z" fill="#ec806b"/><path d="m384.6 425.239v78.903h24v-78.903c0-28.101-22.781-50.882-50.882-50.882h-24c28.101 0 50.882 22.781 50.882 50.882z" fill="#d8ecfe"/><path d="m357.932 61.147v-26.642c-34.562-30.538-68.735-27.005-93.108-27.005 39.738 0 74.187 21.64 93.108 53.647z" fill="#444"/><path d="m270.824 7.5c-16.913 0-29.484 0-45.823 0-63.251 0-113.115 54.818-108.262 119.02l5.674 75.078h250.999l5.674-75.078c4.853-64.202-45.011-119.02-108.262-119.02z" fill="#5a5a5a"/><path d="m286.824 7.5h-22c63.251 0 113.115 54.818 108.262 119.02l-5.674 75.078h22l5.674-75.078c4.853-64.202-45.011-119.02-108.262-119.02z" fill="#444"/><path d="m197.601 229.181h-55.097c-21.183 0-38.355-17.172-38.355-38.355v-.236c0-21.183 17.172-38.355 38.355-38.355h55.097z" fill="#f89580"/><path d="m314.399 152.236h55.097c21.183 0 38.355 17.172 38.355 38.355v.236c0 21.183-17.172 38.355-38.355 38.355h-55.097z" fill="#ec806b"/><path d="m244.842 58.211c57.406 5.352 102.342 53.653 102.342 112.457v40.04c0 58.804-44.936 107.105-102.342 112.457 68.638 6.4 124.342-47.225 124.342-112.457v-40.04c0-65.464-55.929-118.836-124.342-112.457z" fill="#f89580"/><path d="m296.5 354.5v16.857c0 1.657 1.343 3 3 3h24c-1.657 0-3-1.343-3-3v-16.857c0-2.761-2.239-5-5-5h-24c2.761 0 5 2.239 5 5z" fill="#d8ecfe"/><path d="m244.842 323.166c57.406-5.352 102.342-53.653 102.342-112.457v-40.04c0-10.812-1.524-21.267-4.361-31.167-8.465 7.896-19.818 12.734-32.309 12.734h-109.029c-21.802 0-40.155-14.719-45.695-34.759-8.478 15.852-13.29 33.959-13.29 53.192v40.04c0 56.251 41.64 106.1 102.342 112.457z" fill="#ffb09e"/><path d="m357.932 104.819v-70.314c-18.991-16.78-43.799-27.005-71.108-27.005-6.429 0-55.382 0-61.823 0-27.226 0-51.965 10.163-70.934 26.853v70.466c0 26.188 21.229 47.417 47.417 47.417h109.029c26.19 0 47.419-21.229 47.419-47.417z" fill="#5a5a5a"/><path d="m357.932 61.147v-26.642c-34.52-30.501-68.842-27.005-93.108-27.005 39.738 0 74.187 21.64 93.108 53.647z" fill="#444"/><path d="m392.6 504.142v-78.903c0-28.101-22.781-50.882-50.882-50.882h-30.218c-1.657 0-3-1.343-3-3v-16.857c0-2.761-2.239-5-5-5h-26.495c-2.761 0-5 2.239-5 5v23.528c0 .986-.292 1.95-.838 2.771l-11.328 17.012c-1.187 1.783-3.807 1.783-4.994 0l-11.328-17.012c-.547-.821-.838-1.785-.838-2.771v-23.528c0-2.761-2.239-5-5-5h-39.837c-2.761 0-5 2.239-5 5v16.857c0 1.657-1.343 3-3 3h-19.17-15.047c-28.101 0-50.882 22.781-50.882 50.882v78.903z" fill="#eaf6ff"/><path d="m264.833 504.142v-113.844l-5.003 7.513c-1.187 1.783-3.807 1.783-4.994 0l-5.003-7.513v113.844z" fill="#b3dafe"/><g><path d="m334.584 246.393h-18.69c-4.143 0-7.5-3.358-7.5-7.5s3.357-7.5 7.5-7.5h18.69c4.143 0 7.5 3.358 7.5 7.5s-3.357 7.5-7.5 7.5z" fill="#fe7c66"/></g><g><path d="m177.068 246.393h18.69c4.143 0 7.5-3.358 7.5-7.5s-3.357-7.5-7.5-7.5h-18.69c-4.143 0-7.5 3.358-7.5 7.5s3.357 7.5 7.5 7.5z" fill="#fe7c66"/></g></g><g><path d="m279.9 237.29c-4.143 0-7.5 3.358-7.5 7.5 0 9.139-7.436 16.574-16.574 16.574s-16.574-7.435-16.574-16.574c0-4.142-3.357-7.5-7.5-7.5s-7.5 3.358-7.5 7.5c0 17.41 14.164 31.574 31.574 31.574s31.574-14.164 31.574-31.574c0-4.143-3.357-7.5-7.5-7.5z"/><path d="m200.495 180.981c-4.143 0-7.5 3.358-7.5 7.5v20.875c0 4.142 3.357 7.5 7.5 7.5s7.5-3.358 7.5-7.5v-20.875c0-4.142-3.357-7.5-7.5-7.5z"/><path d="m311.157 180.981c-4.143 0-7.5 3.358-7.5 7.5v20.875c0 4.142 3.357 7.5 7.5 7.5s7.5-3.358 7.5-7.5v-20.875c0-4.142-3.357-7.5-7.5-7.5z"/><path d="m408.6 450c4.143 0 7.5-3.358 7.5-7.5v-17.261c0-32.192-26.19-58.382-58.382-58.382h-29.718v-12.357c0-6.893-5.607-12.5-12.5-12.5h-5.625v-23.463c32.151-16.062 56.156-46.082 64.027-82.072 23.224-2.225 41.448-21.841 41.448-45.639v-.235c0-13.424-5.798-25.518-15.022-33.912l2.237-29.595c2.769-36.669-11.321-73.093-39.668-98.2-21.08-18.626-48.096-28.884-76.073-28.884h-61.822c-26.309 0-51.112 8.726-71.73 25.233-3.233 2.589-3.756 7.309-1.167 10.542s7.31 3.758 10.542 1.167c17.929-14.355 39.491-21.942 62.355-21.942h61.822c24.226 0 47.632 8.857 65.939 24.947l10.87 11.118c17.061 20.315 26.079 47.021 23.975 74.889l-1.651 21.85c-3.803-1.468-7.845-2.448-12.056-2.852-2.058-9.437-5.136-18.298-9.261-26.805-.095-.197-.185-.396-.282-.593-1.2-2.44-3.121-7.778-9.04-7.147-3.044.319-5.589 2.456-6.43 5.398-4.868 17.034-20.648 28.931-38.374 28.931h-109.029c-16.815 0-31.969-10.672-37.612-26.571-.542-1.522-.823-2.591-1.036-3.193-2.195-6.177-10.608-6.74-13.66-1.033-5.153 9.635-9.106 20.387-11.418 31.037-.198.02-.392.057-.59.08-1.539.179-2.289.315-3.289.504-2.751.526-5.721 1.385-8.008 2.277l-1.654-21.883c-1.697-22.493 3.721-45.267 16.601-64.961 2.268-3.466 1.295-8.115-2.171-10.382-3.468-2.267-8.115-1.295-10.382 2.172-14.301 21.866-21.006 47.78-19.005 74.301l2.248 29.749c-9.127 8.387-14.86 20.414-14.86 33.757v.235c0 23.68 18.042 43.223 41.101 45.609 4.776 22.019 15.67 42.308 31.831 58.761 9.576 9.749 20.567 17.649 32.544 23.541v23.264h-5.625c-6.893 0-12.5 5.607-12.5 12.5v12.357h-29.718c-32.191 0-58.382 26.19-58.382 58.382v79.261c0 4.142 3.357 7.5 7.5 7.5h305.2c4.143 0 7.5-3.358 7.5-7.5v-27c0-4.142-3.357-7.5-7.5-7.5s-7.5 3.358-7.5 7.5v19.5h-137.6v-93.171l12.57-18.877c1.369-2.059 2.093-4.453 2.093-6.925v-21.027h24.212 10.625v14.357c0 5.79 4.71 10.5 10.5 10.5h34.218c23.921 0 43.382 19.461 43.382 43.382v17.261c0 4.142 3.357 7.5 7.5 7.5zm-32.297-288.7c-.021-.273-.029-.546-.052-.819 13.775 3.088 24.1 15.416 24.1 30.109v.235c0 14.695-10.325 27.023-24.102 30.11.005-.054.006-.107.01-.161.746-8.969.523-53.36.044-59.474zm-264.654 29.526v-.235c0-14.611 10.217-26.852 23.776-30.029-.568 6.794-.425 8.066-.425 50.147 0 3.304.181 7.402.429 10.154-13.615-3.207-23.78-15.457-23.78-30.037zm136.851 306.174h-137.6v-71.761c0-23.921 19.461-43.382 43.382-43.382h34.218c5.79 0 10.5-4.71 10.5-10.5v-14.357h10.625 24.212v21.027c0 2.472.724 4.866 2.096 6.928l12.567 18.873zm46.375-155h-19.212c-6.893 0-12.5 5.607-12.5 12.5v22.772l-5.926 8.9c-.403-.067-.815-.11-1.237-.11s-.834.043-1.237.11l-5.926-8.9v-22.772c0-6.893-5.607-12.5-12.5-12.5h-19.212v-17.09c24.077 8.007 51.814 8.706 77.75-.103zm-46.918-26.152c-49.175-3.777-89.067-40.943-96.652-88.631-.889-5.659-1.305-11.232-1.305-16.509 0-43.411-.43-46.767 1.632-58.452 1.003-5.664 2.455-11.239 4.359-16.655 3.096 4.57 6.895 8.677 11.319 12.2.001 0 .001 0 .002.001 9.861 7.855 22.141 11.934 34.174 11.934h109.029c18.102 0 35.069-9.079 45.271-23.874 2.356 6.759 4.013 13.766 4.961 20.881.032.24.073.479.103.719.878 6.947 1.867 55.3-.532 70.178-8.451 52.138-55.457 92.314-112.361 88.208z"/></g></g></svg>